<svg xmlns="http://www.w3.org/2000/svg" width="800" height="600" viewBox="0 0 800 600">
  <defs><linearGradient id="bg" x1="0%" y1="0%" x2="100%" y2="100%"><stop offset="0%" stop-color="#0a0a0a"/><stop offset="100%" stop-color="#181818"/></linearGradient></defs>
  <rect width="100%" height="100%" fill="url(#bg)"/>
  <rect x="0" y="0" width="100%" height="2" fill="rgba(201,168,76,0.1)"/>
  <rect x="0" y="598" width="100%" height="2" fill="rgba(201,168,76,0.1)"/>
  <line x1="0" y1="80" x2="800" y2="80" stroke="rgba(255,255,255,0.015)" stroke-width="0.5"/>
  <line x1="0" y1="520" x2="800" y2="520" stroke="rgba(255,255,255,0.015)" stroke-width="0.5"/>
  <rect x="60" y="180" width="40" height="320" fill="rgba(201,168,76,0.05)" rx="2"/>
  <rect x="130" y="120" width="55" height="380" fill="rgba(201,168,76,0.04)" rx="2"/>
  <rect x="220" y="240" width="35" height="260" fill="rgba(255,255,255,0.02)" rx="2"/>
  <rect x="290" y="160" width="50" height="340" fill="rgba(201,168,76,0.06)" rx="2"/>
  <rect x="380" y="200" width="40" height="300" fill="rgba(255,255,255,0.02)" rx="2"/>
  <rect x="460" y="100" width="60" height="400" fill="rgba(201,168,76,0.05)" rx="2"/>
  <rect x="560" y="220" width="45" height="280" fill="rgba(255,255,255,0.03)" rx="2"/>
  <rect x="640" y="140" width="55" height="360" fill="rgba(201,168,76,0.04)" rx="2"/>
  <rect x="730" y="190" width="35" height="310" fill="rgba(201,168,76,0.03)" rx="2"/>
  <text x="400" y="450" text-anchor="middle" fill="rgba(255,255,255,0.1)" font-family="Inter, sans-serif" font-size="18" font-weight="200" letter-spacing="6">YIFANG ARCHITECTURAL DESIGN</text>
  <text x="400" y="500" text-anchor="middle" fill="rgba(201,168,76,0.08)" font-family="Inter, sans-serif" font-size="11" font-weight="300" letter-spacing="8">EST. 2018</text>
</svg>
