<svg xmlns="http://www.w3.org/2000/svg" width="1920" height="1080" viewBox="0 0 1920 1080">
  <defs>
    <linearGradient id="bg" x1="0%" y1="0%" x2="100%" y2="100%">
      <stop offset="0%" stop-color="#0a0a0a"/>
      <stop offset="50%" stop-color="#141414"/>
      <stop offset="100%" stop-color="#1a1a1a"/>
    </linearGradient>
    <linearGradient id="goldG" x1="0%" y1="0%" x2="100%" y2="0%">
      <stop offset="0%" stop-color="transparent"/>
      <stop offset="50%" stop-color="rgba(201,168,76,0.12)"/>
      <stop offset="100%" stop-color="transparent"/>
    </linearGradient>
  </defs>
  <rect width="100%" height="100%" fill="url(#bg)"/>
  <rect x="0" y="0" width="100%" height="2" fill="url(#goldG)"/>
  <rect x="0" y="1078" width="100%" height="2" fill="url(#goldG)"/>
  <line x1="40" y1="0" x2="40" y2="1080" stroke="rgba(201,168,76,0.05)" stroke-width="1"/>
  <line x1="0" y1="40" x2="1920" y2="40" stroke="rgba(255,255,255,0.02)" stroke-width="0.5"/>
  <rect x="100" y="500" width="60" height="480" fill="rgba(201,168,76,0.06)" rx="2"/>
  <rect x="200" y="350" width="80" height="630" fill="rgba(201,168,76,0.05)" rx="2"/>
  <rect x="320" y="450" width="55" height="530" fill="rgba(255,255,255,0.02)" rx="2"/>
  <rect x="450" y="280" width="90" height="700" fill="rgba(201,168,76,0.04)" rx="2"/>
  <rect x="580" y="400" width="70" height="580" fill="rgba(255,255,255,0.02)" rx="2"/>
  <rect x="700" y="200" width="85" height="780" fill="rgba(201,168,76,0.06)" rx="2"/>
  <rect x="850" y="380" width="65" height="600" fill="rgba(255,255,255,0.03)" rx="2"/>
  <rect x="1000" y="250" width="95" height="730" fill="rgba(201,168,76,0.05)" rx="2"/>
  <rect x="1150" y="480" width="75" height="500" fill="rgba(255,255,255,0.02)" rx="2"/>
  <rect x="1300" y="300" width="85" height="680" fill="rgba(201,168,76,0.04)" rx="2"/>
  <rect x="1450" y="420" width="65" height="560" fill="rgba(255,255,255,0.03)" rx="2"/>
  <rect x="1580" y="150" width="90" height="830" fill="rgba(201,168,76,0.06)" rx="2"/>
  <rect x="1720" y="380" width="70" height="600" fill="rgba(201,168,76,0.04)" rx="2"/>
  <rect x="1800" y="500" width="50" height="480" fill="rgba(255,255,255,0.02)" rx="2"/>
  <text x="960" y="480" text-anchor="middle" fill="rgba(255,255,255,0.15)" font-family="Inter, sans-serif" font-size="52" font-weight="200" letter-spacing="8">YIFANG</text>
  <text x="960" y="545" text-anchor="middle" fill="rgba(201,168,76,0.12)" font-family="Inter, sans-serif" font-size="16" font-weight="300" letter-spacing="12">ARCHITECTURAL DESIGN</text>
  <line x1="760" y1="590" x2="1160" y2="590" stroke="rgba(201,168,76,0.08)" stroke-width="1"/>
  <circle cx="960" cy="590" r="3" fill="rgba(201,168,76,0.15)"/>
  <rect x="760" y="960" width="400" height="1" fill="rgba(201,168,76,0.06)"/>
  <circle cx="960" cy="960" r="2" fill="rgba(201,168,76,0.1)"/>
</svg>
